<svg xmlns="http://www.w3.org/2000/svg" xmlns:xlink="http://www.w3.org/1999/xlink" viewBox="0 0 384.5 384.5"><defs><style>.cls-1,.cls-3,.cls-4{fill:none;}.cls-2{opacity:0;}.cls-3{stroke:#000;stroke-width:0.25px;}.cls-10,.cls-11,.cls-12,.cls-13,.cls-14,.cls-16,.cls-17,.cls-18,.cls-19,.cls-20,.cls-21,.cls-22,.cls-23,.cls-24,.cls-3,.cls-4,.cls-6,.cls-7,.cls-8,.cls-9{stroke-miterlimit:10;}.cls-10,.cls-11,.cls-12,.cls-13,.cls-14,.cls-16,.cls-17,.cls-18,.cls-19,.cls-20,.cls-21,.cls-22,.cls-23,.cls-24,.cls-4,.cls-6,.cls-7,.cls-8,.cls-9{stroke-width:0.5px;}.cls-4{stroke:url(#radial-gradient);}.cls-5{clip-path:url(#clip-path);}.cls-6{fill:url(#radial-gradient-2);stroke:url(#radial-gradient-3);}.cls-7{fill:url(#radial-gradient-4);stroke:url(#radial-gradient-5);}.cls-8{fill:url(#radial-gradient-6);stroke:url(#radial-gradient-7);}.cls-9{fill:url(#radial-gradient-8);stroke:url(#radial-gradient-9);}.cls-10{fill:url(#radial-gradient-10);stroke:url(#radial-gradient-11);}.cls-11{fill:url(#radial-gradient-12);stroke:url(#radial-gradient-13);}.cls-12{fill:url(#radial-gradient-14);stroke:url(#radial-gradient-15);}.cls-13{fill:url(#radial-gradient-16);stroke:url(#radial-gradient-17);}.cls-14{fill:url(#radial-gradient-18);stroke:url(#radial-gradient-19);}.cls-15{clip-path:url(#clip-path-2);}.cls-16{fill:url(#radial-gradient-20);stroke:url(#radial-gradient-21);}.cls-17{fill:url(#radial-gradient-22);stroke:url(#radial-gradient-23);}.cls-18{fill:url(#radial-gradient-24);stroke:url(#radial-gradient-25);}.cls-19{fill:url(#radial-gradient-26);stroke:url(#radial-gradient-27);}.cls-20{fill:url(#radial-gradient-28);stroke:url(#radial-gradient-29);}.cls-21{fill:url(#radial-gradient-30);stroke:url(#radial-gradient-31);}.cls-22{fill:url(#radial-gradient-32);stroke:url(#radial-gradient-33);}.cls-23{fill:url(#radial-gradient-34);stroke:url(#radial-gradient-35);}.cls-24{fill:url(#radial-gradient-36);stroke:url(#radial-gradient-37);}</style><radialGradient id="radial-gradient" cx="189.81" cy="182.92" r="186.64" gradientTransform="translate(0.25 0.25) scale(1.01 1.05)" gradientUnits="userSpaceOnUse"><stop offset="0" stop-color="#3c0000" stop-opacity="0.5"/><stop offset="1" stop-color="#3c0000" stop-opacity="0.5"/></radialGradient><clipPath id="clip-path" transform="translate(0.25 0.25)"><path id="clipmask" class="cls-1" d="M195,181.9V13.54c92.36,0,168.36,76,168.36,168.36a168.33,168.33,0,0,1-22.56,84.18Z"/></clipPath><radialGradient id="radial-gradient-2" cx="195.14" cy="181.19" r="191.27" gradientUnits="userSpaceOnUse"><stop offset="0.69" stop-opacity="0.8"/><stop offset="0.87" stop-opacity="0.6"/></radialGradient><radialGradient id="radial-gradient-3" cx="256.81" cy="36.62" r="10.56" gradientUnits="userSpaceOnUse"><stop offset="0" stop-opacity="0.4"/><stop offset="1" stop-opacity="0.4"/></radialGradient><radialGradient id="radial-gradient-4" cx="197.6" cy="182.67" r="195.9" gradientUnits="userSpaceOnUse"><stop offset="0.67" stop-opacity="0.8"/><stop offset="0.84" stop-opacity="0.6"/></radialGradient><radialGradient id="radial-gradient-5" cx="308.13" cy="73.43" r="10.31" xlink:href="#radial-gradient-3"/><radialGradient id="radial-gradient-6" cx="196.12" cy="179.21" r="195" gradientUnits="userSpaceOnUse"><stop offset="0.69" stop-opacity="0.8"/><stop offset="0.85" stop-opacity="0.6"/></radialGradient><radialGradient id="radial-gradient-7" cx="342.44" cy="131.4" r="10.76" xlink:href="#radial-gradient-3"/><radialGradient id="radial-gradient-8" cx="196.62" cy="182.17" r="195.34" gradientUnits="userSpaceOnUse"><stop offset="0.71" stop-opacity="0.8"/><stop offset="0.85" stop-opacity="0.6"/></radialGradient><radialGradient id="radial-gradient-9" cx="283.35" cy="52.85" r="23.83" xlink:href="#radial-gradient-3"/><radialGradient id="radial-gradient-10" cx="195.14" cy="179.71" r="185.35" gradientUnits="userSpaceOnUse"><stop offset="0.69" stop-opacity="0.8"/><stop offset="0.88" stop-opacity="0.6"/></radialGradient><radialGradient id="radial-gradient-11" cx="225.87" cy="29.22" r="23.08" xlink:href="#radial-gradient-3"/><radialGradient id="radial-gradient-12" cx="196.62" cy="178.72" r="191.87" gradientUnits="userSpaceOnUse"><stop offset="0.68" stop-opacity="0.8"/><stop offset="0.86" stop-opacity="0.6"/></radialGradient><radialGradient id="radial-gradient-13" cx="327.28" cy="101.4" r="25.06" xlink:href="#radial-gradient-3"/><radialGradient id="radial-gradient-14" cx="195.63" cy="179.71" r="197.4" gradientUnits="userSpaceOnUse"><stop offset="0.67" stop-opacity="0.8"/><stop offset="0.85" stop-opacity="0.6"/></radialGradient><radialGradient id="radial-gradient-15" cx="348.53" cy="164.06" r="23.46" xlink:href="#radial-gradient-3"/><radialGradient id="radial-gradient-16" cx="194.64" cy="181.68" r="203.68" gradientUnits="userSpaceOnUse"><stop offset="0.64" stop-opacity="0.8"/><stop offset="0.83" stop-opacity="0.6"/></radialGradient><radialGradient id="radial-gradient-17" cx="341.52" cy="232.17" r="26.07" xlink:href="#radial-gradient-3"/><radialGradient id="radial-gradient-18" cx="195.63" cy="180.2" r="200.56" gradientUnits="userSpaceOnUse"><stop offset="0.62" stop-opacity="0.8"/><stop offset="0.84" stop-opacity="0.6"/></radialGradient><radialGradient id="radial-gradient-19" cx="351.22" cy="197.88" r="9.81" xlink:href="#radial-gradient-3"/><clipPath id="clip-path-2" transform="translate(0.25 0.25)"><path id="clipmask-2" data-name="clipmask" class="cls-1" d="M195,181.9V13.54c92.36,0,168.36,76,168.36,168.36a168.33,168.33,0,0,1-22.56,84.18L235.9,205.52l-2.59-12.9-13.49,3.62Z"/></clipPath><radialGradient id="radial-gradient-20" cx="195.63" cy="181.19" r="195.67" gradientUnits="userSpaceOnUse"><stop offset="0.75" stop-color="#961e14" stop-opacity="0.9"/><stop offset="0.8" stop-color="#861e14" stop-opacity="0.8"/><stop offset="0.84" stop-color="#781e14" stop-opacity="0.7"/></radialGradient><radialGradient id="radial-gradient-21" cx="308.13" cy="73.43" r="10.31" gradientTransform="matrix(1, 0, 0, 1, 0, 0)" xlink:href="#radial-gradient"/><radialGradient id="radial-gradient-22" cx="195.14" cy="180.69" r="202.8" gradientUnits="userSpaceOnUse"><stop offset="0.72" stop-color="#961e14" stop-opacity="0.9"/><stop offset="0.78" stop-color="#861e14" stop-opacity="0.8"/><stop offset="0.82" stop-color="#781e14" stop-opacity="0.7"/></radialGradient><radialGradient id="radial-gradient-23" cx="342.44" cy="131.4" r="10.76" gradientTransform="matrix(1, 0, 0, 1, 0, 0)" xlink:href="#radial-gradient"/><radialGradient id="radial-gradient-24" cx="194.64" cy="179.71" r="196.07" gradientUnits="userSpaceOnUse"><stop offset="0.74" stop-color="#961e14" stop-opacity="0.9"/><stop offset="0.8" stop-color="#861e14" stop-opacity="0.8"/><stop offset="0.84" stop-color="#781e14" stop-opacity="0.7"/></radialGradient><radialGradient id="radial-gradient-25" cx="283.35" cy="52.85" r="23.83" gradientTransform="matrix(1, 0, 0, 1, 0, 0)" xlink:href="#radial-gradient"/><radialGradient id="radial-gradient-26" cx="196.12" cy="182.17" r="192.71" gradientUnits="userSpaceOnUse"><stop offset="0.77" stop-color="#961e14" stop-opacity="0.9"/><stop offset="0.82" stop-color="#861e14" stop-opacity="0.8"/><stop offset="0.86" stop-color="#781e14" stop-opacity="0.7"/></radialGradient><radialGradient id="radial-gradient-27" cx="225.87" cy="29.22" r="23.08" gradientTransform="matrix(1, 0, 0, 1, 0, 0)" xlink:href="#radial-gradient"/><radialGradient id="radial-gradient-28" cx="195.63" cy="181.68" r="194.18" gradientUnits="userSpaceOnUse"><stop offset="0.76" stop-color="#961e14" stop-opacity="0.9"/><stop offset="0.81" stop-color="#861e14" stop-opacity="0.8"/><stop offset="0.85" stop-color="#781e14" stop-opacity="0.7"/></radialGradient><radialGradient id="radial-gradient-29" cx="256.81" cy="36.62" r="10.56" gradientTransform="matrix(1, 0, 0, 1, 0, 0)" xlink:href="#radial-gradient"/><radialGradient id="radial-gradient-30" cx="196.62" cy="178.72" r="218.61" gradientUnits="userSpaceOnUse"><stop offset="0.66" stop-color="#961e14" stop-opacity="0.9"/><stop offset="0.71" stop-color="#861e14" stop-opacity="0.8"/><stop offset="0.74" stop-color="#781e14" stop-opacity="0.7"/></radialGradient><radialGradient id="radial-gradient-31" cx="327.28" cy="101.4" r="25.06" gradientTransform="matrix(1, 0, 0, 1, 0, 0)" xlink:href="#radial-gradient"/><radialGradient id="radial-gradient-32" cx="195.63" cy="180.2" r="228.89" gradientUnits="userSpaceOnUse"><stop offset="0.64" stop-color="#961e14" stop-opacity="0.9"/><stop offset="0.68" stop-color="#861e14" stop-opacity="0.8"/><stop offset="0.72" stop-color="#781e14" stop-opacity="0.7"/></radialGradient><radialGradient id="radial-gradient-33" cx="348.53" cy="164.06" r="23.46" gradientTransform="matrix(1, 0, 0, 1, 0, 0)" xlink:href="#radial-gradient"/><radialGradient id="radial-gradient-34" cx="196.62" cy="179.71" r="220.82" gradientUnits="userSpaceOnUse"><stop offset="0.67" stop-color="#961e14" stop-opacity="0.9"/><stop offset="0.71" stop-color="#861e14" stop-opacity="0.8"/><stop offset="0.74" stop-color="#781e14" stop-opacity="0.7"/></radialGradient><radialGradient id="radial-gradient-35" cx="341.52" cy="232.17" r="26.07" gradientTransform="matrix(1, 0, 0, 1, 0, 0)" xlink:href="#radial-gradient"/><radialGradient id="radial-gradient-36" cx="195.14" cy="179.71" r="221.11" gradientUnits="userSpaceOnUse"><stop offset="0.67" stop-color="#961e14" stop-opacity="0.9"/><stop offset="0.71" stop-color="#861e14" stop-opacity="0.8"/><stop offset="0.75" stop-color="#781e14" stop-opacity="0.7"/></radialGradient><radialGradient id="radial-gradient-37" cx="351.22" cy="197.88" r="9.81" gradientTransform="matrix(1, 0, 0, 1, 0, 0)" xlink:href="#radial-gradient"/></defs><title>circular-menu</title><g id="helpers" class="cls-2"><rect id="center" class="cls-3" x="195.23" y="182.15" width="10" height="10"/><path id="clipmask-3" data-name="clipmask" class="cls-3" d="M195,181.9V13.54c92.36,0,168.36,76,168.36,168.36a168.33,168.33,0,0,1-22.56,84.18Z" transform="translate(0.25 0.25)"/><rect id="box" class="cls-4" x="0.25" y="0.25" width="384" height="384"/></g><g id="ruler"><g id="background"><g class="cls-5"><g id="items"><path class="cls-6" d="M266.81,42.31l-12.56,4.82c-2.33-1-4.73-2-7.14-2.93l12.17-5.86-5.81-12.05q4.36,1.63,8.52,3.48Z" transform="translate(0.25 0.25)"/><path class="cls-7" d="M318,70.2l-.7,13.43-13.41-.7c-1.7-1.87-3.49-3.75-5.35-5.59L312.06,77l-.38-13.38C313.86,65.72,316,67.94,318,70.2Z" transform="translate(0.25 0.25)"/><path class="cls-8" d="M352.87,129.9l-6.1,12-12-6.11c-.79-2.41-1.65-4.84-2.59-7.26l12.49,5.12,5.08-12.38C350.86,124.07,351.9,127,352.87,129.9Z" transform="translate(0.25 0.25)"/><path class="cls-9" d="M308.87,73.93l-13.44.39A146.24,146.24,0,0,0,258.22,49l12.61-4.84L266,31.61a166.13,166.13,0,0,1,42.44,28.88Z" transform="translate(0.25 0.25)"/><path class="cls-10" d="M255.12,36.89,243,42.72a146.71,146.71,0,0,0-46.48-8v-19a166.15,166.15,0,0,1,52.77,9.07Z" transform="translate(0.25 0.25)"/><path class="cls-11" d="M348.08,117.13,343,129.57l-12.44-5.11A146.23,146.23,0,0,0,306.79,86.2l13.49.7.7-13.36A166,166,0,0,1,348.08,117.13Z" transform="translate(0.25 0.25)"/><path class="cls-12" d="M361.15,181.88c0,1,0,2.06,0,3.12l-9.72,9.28-9.29-9.71c0-.9,0-1.79,0-2.69a146.64,146.64,0,0,0-6.08-41.95l12.06,6.13,6.07-11.91A166,166,0,0,1,361.15,181.88Z" transform="translate(0.25 0.25)"/><path class="cls-13" d="M359.83,203a164.25,164.25,0,0,1-20.14,60.61l-16.47-9.51A145.38,145.38,0,0,0,340.93,201l8.49,10.48Z" transform="translate(0.25 0.25)"/><path class="cls-14" d="M361,189.45c-.15,3.05-.36,6.12-.68,9.17l-.07.06-10.37,8.4-8.46-10.45q.38-3.88.56-7.7l9.34,9.76Z" transform="translate(0.25 0.25)"/></g></g></g><g id="highlight"><g class="cls-15"><g id="items-2" data-name="items"><path class="cls-16" d="M318,70.2l-.7,13.43-13.41-.7c-1.7-1.87-3.49-3.75-5.35-5.59L312.06,77l-.38-13.38C313.86,65.72,316,67.94,318,70.2Z" transform="translate(0.25 0.25)"/><path class="cls-17" d="M352.87,129.9l-6.1,12-12-6.11c-.79-2.41-1.65-4.84-2.59-7.26l12.49,5.12,5.08-12.38C350.86,124.07,351.9,127,352.87,129.9Z" transform="translate(0.25 0.25)"/><path class="cls-18" d="M308.87,73.93l-13.44.39A146.24,146.24,0,0,0,258.22,49l12.61-4.84L266,31.61a166.13,166.13,0,0,1,42.44,28.88Z" transform="translate(0.25 0.25)"/><path class="cls-19" d="M255.12,36.89,243,42.72a146.71,146.71,0,0,0-46.48-8v-19a166.15,166.15,0,0,1,52.77,9.07Z" transform="translate(0.25 0.25)"/><path class="cls-20" d="M266.81,42.31l-12.56,4.82c-2.33-1-4.73-2-7.14-2.93l12.17-5.86-5.81-12.05q4.36,1.63,8.52,3.48Z" transform="translate(0.25 0.25)"/><path class="cls-21" d="M348.08,117.13,343,129.57l-12.44-5.11A146.23,146.23,0,0,0,306.79,86.2l13.49.7.7-13.36A166,166,0,0,1,348.08,117.13Z" transform="translate(0.25 0.25)"/><path class="cls-22" d="M361.15,181.88c0,1,0,2.06,0,3.12l-9.72,9.28-9.29-9.71c0-.9,0-1.79,0-2.69a146.64,146.64,0,0,0-6.08-41.95l12.06,6.13,6.07-11.91A166,166,0,0,1,361.15,181.88Z" transform="translate(0.25 0.25)"/><path class="cls-23" d="M359.83,203a164.25,164.25,0,0,1-20.14,60.61l-16.47-9.51A145.38,145.38,0,0,0,340.93,201l8.49,10.48Z" transform="translate(0.25 0.25)"/><path class="cls-24" d="M361,189.45c-.15,3.05-.36,6.12-.68,9.17l-.07.06-10.37,8.4-8.46-10.45q.38-3.88.56-7.7l9.34,9.76Z" transform="translate(0.25 0.25)"/></g></g></g></g></svg>