<?xml version="1.0" standalone="no"?>
<!DOCTYPE svg PUBLIC "-//W3C//DTD SVG 20010904//EN"
 "http://www.w3.org/TR/2001/REC-SVG-20010904/DTD/svg10.dtd">
<svg version="1.0" xmlns="http://www.w3.org/2000/svg"
 width="1280.000000pt" height="1072.000000pt" viewBox="0 0 1280.000000 1072.000000"
 preserveAspectRatio="xMidYMid meet">
<metadata>
Created by potrace 1.15, written by Peter Selinger 2001-2017
</metadata>
<g transform="translate(0.000000,1072.000000) scale(0.100000,-0.100000)"
fill="#000000" stroke="none">
<path d="M8399 10705 c-14 -8 -71 -20 -125 -27 -54 -6 -103 -17 -109 -23 -14
-17 -45 -31 -82 -38 -40 -8 -162 -97 -225 -165 -49 -52 -110 -141 -130 -189
-32 -79 -44 -294 -28 -535 8 -131 8 -192 1 -206 -8 -15 -6 -28 6 -53 14 -28
18 -79 24 -269 4 -129 10 -283 14 -343 l8 -107 -45 19 c-119 51 -197 66 -343
66 -129 -1 -145 -3 -209 -28 -38 -15 -103 -47 -143 -72 l-74 -44 -9 24 c-16
43 -63 41 -120 -5 -24 -19 -28 -20 -73 -6 -46 14 -48 13 -77 -11 -41 -34 -121
-63 -173 -63 -32 0 -49 -6 -65 -22 -36 -40 -73 -127 -83 -196 -5 -37 -19 -112
-30 -166 -27 -125 -22 -234 16 -356 36 -118 75 -317 75 -382 0 -61 -18 -101
-98 -221 -88 -130 -87 -127 -51 -199 18 -35 62 -117 99 -183 37 -66 86 -156
109 -200 50 -97 122 -195 264 -360 105 -123 107 -126 107 -175 l0 -50 -285 -2
c-157 -1 -304 -2 -327 -3 l-43 0 -11 65 c-16 96 -21 108 -57 119 -18 6 -164
15 -325 21 -162 6 -317 16 -345 22 -65 13 -355 22 -413 13 -70 -10 -84 -29
-95 -120 -13 -116 -16 -118 -192 -127 -78 -3 -323 -7 -544 -7 l-403 -1 0 30
c0 53 -34 76 -136 90 -49 7 -98 17 -108 22 -10 6 -111 14 -224 17 -237 9 -218
0 -257 124 -123 390 -155 850 -84 1209 12 59 25 108 28 108 4 0 14 -44 23 -97
29 -167 76 -309 204 -621 l59 -144 43 6 c24 3 107 11 185 16 78 6 148 13 156
16 21 7 10 168 -38 544 -22 173 -52 421 -66 550 -14 129 -34 305 -45 390 -11
85 -27 220 -35 300 -19 180 -42 307 -61 334 -8 11 -14 30 -14 41 0 28 -62 131
-105 174 -42 43 -73 44 -167 6 -72 -29 -144 -85 -176 -138 -76 -124 -86 -381
-32 -800 l20 -156 -35 -58 c-90 -152 -171 -453 -216 -808 -17 -133 -20 -196
-16 -370 6 -263 32 -389 118 -570 37 -78 31 -93 -39 -102 -52 -7 -73 -30 -79
-88 l-6 -45 -262 0 -262 0 -6 68 c-4 37 -7 157 -7 268 0 110 -3 249 -7 307
l-6 107 -169 0 -168 0 0 153 c0 83 -3 189 -7 235 l-6 82 -189 0 -189 0 7 279
7 279 -179 6 c-98 3 -288 9 -420 12 l-242 6 -6 -153 c-5 -139 -11 -404 -33
-1366 l-6 -303 -269 0 -268 0 0 -70 0 -70 68 0 c37 0 72 -4 79 -8 8 -5 14 -52
17 -132 3 -69 9 -208 14 -310 6 -102 13 -930 16 -1840 3 -910 9 -2088 12
-2617 l6 -963 433 0 c421 0 3012 -23 3805 -34 217 -3 756 -9 1197 -12 l803 -7
2 263 3 264 95 14 c52 7 101 19 109 26 8 9 16 54 20 127 9 129 25 178 114 338
37 68 77 122 140 188 82 85 235 203 265 203 16 0 14 -51 -6 -169 l-17 -95 -68
-16 c-76 -19 -111 -40 -145 -91 -22 -31 -23 -41 -18 -106 9 -97 32 -170 63
-199 15 -13 23 -27 20 -31 -7 -6 63 -34 148 -59 67 -19 163 -20 181 -2 9 9 20
61 29 133 11 91 21 128 41 162 24 41 44 118 58 224 l7 46 386 7 385 7 48 -45
c68 -63 98 -76 179 -76 39 0 73 -5 76 -11 4 -6 -7 -33 -24 -61 -43 -68 -61
-144 -61 -250 0 -128 15 -186 59 -228 43 -41 95 -59 276 -94 200 -38 202 -38
308 -16 134 28 247 90 247 134 0 12 14 50 31 85 31 63 40 111 54 271 l6 65
102 66 c56 37 133 89 171 115 l68 49 212 0 c177 -1 845 -37 911 -50 14 -3 33
-29 58 -80 20 -41 42 -75 49 -75 7 0 22 -12 33 -26 25 -32 91 -42 162 -25 41
10 55 21 101 77 29 36 57 75 62 88 10 27 55 36 191 36 86 0 89 -1 89 -22 1
-79 22 -215 38 -237 9 -13 27 -43 40 -65 23 -42 123 -150 154 -167 21 -11 95
5 152 34 47 23 146 114 146 133 0 8 9 23 21 35 18 18 19 24 8 56 -15 45 -75
112 -116 130 -18 7 -47 13 -66 13 -55 0 -66 16 -97 143 -16 64 -37 128 -46
142 -33 50 -82 63 -334 91 -79 9 -159 22 -176 29 -29 12 -33 19 -39 67 -11 93
-23 118 -64 135 -46 20 -286 32 -646 33 -148 0 -355 3 -459 7 -217 7 -217 7
-235 93 -17 77 -40 347 -49 560 -7 179 -8 186 -34 220 -14 19 -30 51 -35 70
-6 25 -18 39 -40 49 -18 8 -36 21 -40 30 -4 9 -9 223 -11 477 l-3 460 38 43
c31 35 47 44 88 52 28 5 73 20 100 34 54 26 28 23 585 60 264 18 399 31 775
75 385 46 482 76 526 163 28 56 73 110 197 240 121 128 148 166 168 238 21 76
33 364 34 795 0 204 3 392 6 418 6 43 10 48 50 66 24 10 44 25 44 32 0 7 -18
29 -41 48 l-41 36 22 139 c31 198 46 272 185 900 165 748 193 892 264 1390 45
314 66 521 59 600 -6 66 -50 155 -100 200 -81 73 -259 145 -458 183 -235 46
-243 47 -665 47 -398 0 -413 -1 -500 -23 -265 -69 -387 -184 -521 -494 -25
-57 -52 -118 -60 -136 -14 -32 -15 -32 -37 -17 -12 9 -58 39 -102 68 -68 45
-88 65 -137 137 -83 124 -163 190 -231 190 -21 0 -63 -9 -95 -21 -38 -13 -99
-23 -182 -28 -69 -4 -136 -13 -149 -20 -18 -10 -29 -10 -56 3 -18 9 -54 16
-80 16 -55 0 -71 8 -147 71 -31 26 -66 50 -76 54 -36 11 -46 57 -33 148 30
203 23 462 -16 642 -20 94 -163 415 -185 415 -5 0 -17 15 -28 33 -11 17 -54
62 -95 98 -99 87 -182 119 -322 125 -73 2 -105 0 -124 -11z m-861 -1950 c34
-8 98 -29 142 -45 l79 -31 6 -47 c3 -26 14 -106 25 -178 11 -72 20 -173 20
-225 0 -104 -10 -134 -89 -262 -23 -37 -59 -103 -80 -145 -21 -42 -57 -108
-80 -146 -23 -38 -53 -92 -65 -120 -13 -29 -57 -92 -98 -141 -41 -50 -97 -124
-126 -165 -62 -91 -208 -238 -221 -225 -5 6 -46 91 -91 190 -45 99 -96 207
-115 240 -77 140 -157 444 -140 534 7 34 97 140 157 182 l27 19 100 -77 c125
-98 197 -142 280 -170 78 -26 131 -29 171 -8 39 20 46 52 25 117 -29 88 -107
178 -280 323 -38 33 -91 79 -117 104 -45 43 -48 48 -48 97 0 29 4 63 9 76 14
36 149 102 251 122 41 8 191 -3 258 -19z m-401 -435 c107 -98 253 -258 253
-276 0 -31 -97 -20 -160 19 -86 52 -250 235 -250 278 1 97 34 92 157 -21z
m1125 -1568 c43 -37 115 -79 226 -133 175 -86 205 -112 200 -174 -4 -39 -29
-50 -154 -70 -54 -9 -115 -22 -136 -30 -20 -8 -67 -19 -105 -26 -76 -13 -201
-67 -309 -134 -126 -79 -361 -349 -443 -509 -19 -37 -47 -77 -62 -90 -32 -27
-33 -27 -624 -45 -278 -8 -316 -12 -373 -31 -35 -12 -66 -20 -69 -17 -8 9 -17
390 -9 420 3 14 14 28 24 31 9 3 116 10 237 16 475 23 600 36 629 66 18 18 6
67 -24 99 -38 41 -26 71 50 118 49 32 93 94 125 177 23 61 34 76 80 110 58 43
87 76 167 189 31 43 103 121 171 183 l119 109 109 -103 c60 -57 137 -127 171
-156z m508 -537 c0 -41 -3 -47 -38 -69 -47 -29 -94 -82 -112 -125 -11 -28 -11
-37 2 -59 8 -15 18 -44 21 -64 3 -21 20 -57 37 -81 46 -64 52 -54 -190 -284
l-55 -53 -210 15 c-270 20 -374 32 -391 46 -38 31 9 152 105 273 59 74 174
184 233 223 22 16 59 40 82 55 90 60 394 166 479 167 l37 1 0 -45z m650 -2418
c45 -23 70 -85 80 -199 11 -117 12 -780 1 -818 -4 -15 -21 -32 -44 -43 -28
-14 -37 -25 -37 -43 0 -14 -11 -49 -25 -78 -23 -49 -26 -70 -35 -277 -13 -297
-18 -339 -38 -339 -35 0 -209 202 -356 413 -27 38 -55 71 -65 74 -9 3 -24 13
-35 22 -15 13 -49 16 -211 16 -172 0 -195 2 -213 18 -23 21 -112 191 -112 214
0 9 -7 21 -15 27 -14 10 -45 80 -146 330 -22 54 -65 153 -96 220 -112 244
-146 356 -108 356 32 0 213 -32 263 -46 41 -12 92 -15 220 -12 l167 3 126 52
c70 29 162 61 204 72 157 41 426 63 475 38z m-2018 -610 c82 -115 159 -225
171 -245 11 -21 41 -63 66 -94 65 -81 167 -269 288 -527 57 -123 109 -235 114
-248 5 -13 26 -50 47 -81 21 -31 42 -66 46 -77 4 -11 35 -67 68 -125 72 -122
82 -175 38 -196 -25 -12 -633 -84 -710 -84 -54 0 -57 19 -19 135 l32 96 -17
67 c-21 86 -65 157 -145 234 -39 38 -73 83 -86 113 -32 70 -62 200 -80 340
-33 254 -42 839 -13 914 8 23 9 23 29 5 12 -11 89 -113 171 -227z m-921 -33
c42 -194 65 -316 89 -484 12 -80 33 -212 46 -295 14 -82 28 -199 31 -260 5
-104 4 -115 -26 -210 -18 -55 -54 -156 -81 -225 -27 -69 -54 -147 -61 -175 -6
-27 -15 -54 -19 -58 -12 -13 -19 213 -31 967 -11 696 -8 909 12 889 5 -5 23
-72 40 -149z m2687 -1120 c157 -86 202 -137 182 -199 -22 -67 -44 -75 -212
-75 l-150 0 4 146 c3 137 4 147 26 164 28 23 56 16 150 -36z"/>
</g>
</svg>
