<svg xmlns="http://www.w3.org/2000/svg" xmlns:xlink="http://www.w3.org/1999/xlink" viewBox="0 0 384.5 384.5"><defs><style>.cls-1,.cls-2,.cls-3{fill:none;}.cls-2{stroke:#000;stroke-width:0.25px;}.cls-2,.cls-3{stroke-miterlimit:10;}.cls-3{stroke-width:0.5px;stroke:url(#radial-gradient);}.cls-4{clip-path:url(#clip-path);}.cls-5{fill:url(#radial-gradient-2);}.cls-6{fill:url(#radial-gradient-3);}</style><radialGradient id="radial-gradient" cx="189.81" cy="182.92" r="186.64" gradientTransform="translate(0.25 0.25) scale(1.01 1.05)" gradientUnits="userSpaceOnUse"><stop offset="0" stop-color="#3c0000" stop-opacity="0.5"/><stop offset="1" stop-color="#3c0000" stop-opacity="0.5"/></radialGradient><clipPath id="clip-path" transform="translate(0.25 0.25)"><path id="clipmask" class="cls-1" d="M352.87,129.9l-6.1,12-12-6.11c-.79-2.41-1.65-4.84-2.59-7.26l12.49,5.12,5.08-12.38C350.86,124.07,351.9,127,352.87,129.9ZM321,73.54a166,166,0,0,1,27.1,43.59L343,129.57l-12.44-5.11A146.23,146.23,0,0,0,306.79,86.2l13.49.7Zm-3-3.34-.7,13.43-13.41-.7c-1.7-1.87-3.49-3.75-5.35-5.59L312.06,77l-.38-13.38C313.86,65.72,316,67.94,318,70.2Zm-9.56-9.71.4,13.44-13.44.39A146.24,146.24,0,0,0,258.22,49l12.61-4.84L266,31.61A166.13,166.13,0,0,1,308.47,60.49ZM262,29.77l4.82,12.54-12.56,4.82c-2.33-1-4.73-2-7.14-2.93l12.17-5.86-5.81-12.05Q257.83,27.92,262,29.77ZM196.52,15.7a166.15,166.15,0,0,1,52.77,9.07l5.83,12.12L243,42.72a146.71,146.71,0,0,0-46.48-8Zm144.9,180.93q.38-3.88.56-7.7l9.34,9.76,9.68-9.24c-.15,3.05-.36,6.12-.68,9.17l-.49,4.41a164.25,164.25,0,0,1-20.14,60.61l-16.47-9.51A145.38,145.38,0,0,0,340.93,201Zm10-2.35-9.29-9.71c0-.9,0-1.79,0-2.69a146.64,146.64,0,0,0-6.08-41.95l12.06,6.13,6.07-11.91a166,166,0,0,1,6.95,47.73c0,1,0,2.06,0,3.12Z"/></clipPath><radialGradient id="radial-gradient-2" cx="194.74" cy="181.44" r="182.86" gradientUnits="userSpaceOnUse"><stop offset="0.79" stop-color="#961e14" stop-opacity="0.9"/><stop offset="0.86" stop-color="#861e14" stop-opacity="0.8"/><stop offset="0.92" stop-color="#781e14" stop-opacity="0.7"/></radialGradient><radialGradient id="radial-gradient-3" cx="194.12" cy="181.79" r="196.69" gradientUnits="userSpaceOnUse"><stop offset="0.73" stop-opacity="0.8"/><stop offset="0.87" stop-opacity="0.6"/></radialGradient></defs><title>circular-menu</title><g id="helpers"><rect id="center" class="cls-2" x="195.23" y="182.15" width="10" height="10"/><rect id="box" class="cls-3" x="0.25" y="0.25" width="384" height="384"/></g><g id="ruler"><g id="progress"><g class="cls-4"><g id="bar"><path class="cls-5" d="M50.33,189.06A144.81,144.81,0,0,0,202.14,326.55l1.2,24.26A169.12,169.12,0,0,1,183.25,13.19l3.53,3,9.74,8.37-8.81,10.24-2.18,2.53A144.83,144.83,0,0,0,50.33,189.06Z" transform="translate(0.25 0.25)"/><path class="cls-6" d="M363.74,173.54A169.11,169.11,0,0,1,203.19,350.81L202,326.55a144.84,144.84,0,0,0,.87-289.27,142.26,142.26,0,0,0-15.18,0c-.77,0-1.54.08-2.3.13l2.18-2.53,8.81-10.24-9.73-8.37-3.54-3c1.12-.08,2.25-.15,3.38-.2q7.58-.37,15-.09A169.13,169.13,0,0,1,363.74,173.54Z" transform="translate(0.25 0.25)"/></g></g></g><path id="border" class="cls-2" d="M352.87,129.9l-6.1,12-12-6.11c-.79-2.41-1.65-4.84-2.59-7.26l12.49,5.12,5.08-12.38C350.86,124.07,351.9,127,352.87,129.9ZM321,73.54a166,166,0,0,1,27.1,43.59L343,129.57l-12.44-5.11A146.23,146.23,0,0,0,306.79,86.2l13.49.7Zm-3-3.34-.7,13.43-13.41-.7c-1.7-1.87-3.49-3.75-5.35-5.59L312.06,77l-.38-13.38C313.86,65.72,316,67.94,318,70.2Zm-9.56-9.71.4,13.44-13.44.39A146.24,146.24,0,0,0,258.22,49l12.61-4.84L266,31.61A166.13,166.13,0,0,1,308.47,60.49ZM262,29.77l4.82,12.54-12.56,4.82c-2.33-1-4.73-2-7.14-2.93l12.17-5.86-5.81-12.05Q257.83,27.92,262,29.77ZM196.52,15.7a166.15,166.15,0,0,1,52.77,9.07l5.83,12.12L243,42.72a146.71,146.71,0,0,0-46.48-8ZM359.83,203a164.25,164.25,0,0,1-20.14,60.61l-16.47-9.51A145.38,145.38,0,0,0,340.93,201l.49-4.34q.38-3.88.56-7.7l9.34,9.76,9.68-9.24c-.15,3.05-.36,6.12-.68,9.17l-.07.06Zm-8.42-8.75-9.29-9.71c0-.9,0-1.79,0-2.69a146.64,146.64,0,0,0-6.08-41.95l12.06,6.13,6.07-11.91a166,166,0,0,1,6.95,47.73c0,1,0,2.06,0,3.12Z" transform="translate(0.25 0.25)"/></g></svg>